<svg xmlns="http://www.w3.org/2000/svg" width="14" height="14" viewBox="0 0 14 14">
    <g fill="none" fill-rule="evenodd">
        <path d="M-2-2h18v18H-2z" opacity=".234"/>
        <path fill="#68717C" d="M7 14A7 7 0 1 1 7 0a7 7 0 0 1 0 14zm0-1A6 6 0 1 0 7 1a6 6 0 0 0 0 12zm-.596-4.396c-.04-.288-.03-.552.03-.792s.148-.46.264-.66c.116-.2.248-.386.396-.558.148-.172.288-.34.42-.504a3.37 3.37 0 0 0 .33-.486c.088-.16.132-.332.132-.516 0-.288-.086-.52-.258-.696-.172-.176-.41-.264-.714-.264-.248 0-.472.056-.672.168a2.28 2.28 0 0 0-.564.456L5 4.044a3.32 3.32 0 0 1 .942-.75A2.553 2.553 0 0 1 7.172 3c.312 0 .6.042.864.126.264.084.49.21.678.378.188.168.336.376.444.624.108.248.162.536.162.864 0 .256-.046.486-.138.69a3.169 3.169 0 0 1-.342.582 6.13 6.13 0 0 1-.438.528 4.34 4.34 0 0 0-.42.528c-.124.184-.224.38-.3.588-.076.208-.098.44-.066.696H6.404zm.612 2.724a.842.842 0 0 1-.636-.264.934.934 0 0 1-.252-.672c0-.272.084-.496.252-.672a.842.842 0 0 1 .636-.264c.256 0 .47.088.642.264.172.176.258.4.258.672a.922.922 0 0 1-.258.672.861.861 0 0 1-.642.264z"/>
    </g>
</svg>
